<?xml version="1.0" encoding="UTF-8"?>
<svg width="262px" height="315px" viewBox="0 0 262 315" version="1.1" xmlns="http://www.w3.org/2000/svg" xmlns:xlink="http://www.w3.org/1999/xlink">
    <!-- Generator: Sketch 43.2 (39069) - http://www.bohemiancoding.com/sketch -->
    <title>Artboard</title>
    <desc>Created with Sketch.</desc>
    <defs></defs>
    <g id="Page-1" stroke="none" stroke-width="1" fill="none" fill-rule="evenodd">
        <g id="Artboard">
            <g id="content_paste_black_24dp" transform="translate(-37.000000, 4.000000)">
                <polygon id="Shape" points="0 0 336 0 336 336 0 336"></polygon>
                <path d="M266,28 L207.48,28 C201.6,11.76 186.2,0 168,0 C149.8,0 134.4,11.76 128.52,28 L70,28 C54.6,28 42,40.6 42,56 L42,280 C42,295.4 54.6,308 70,308 L266,308 C281.4,308 294,295.4 294,280 L294,56 C294,40.6 281.4,28 266,28 Z M168,28 C175.7,28 182,34.3 182,42 C182,49.7 175.7,56 168,56 C160.3,56 154,49.7 154,42 C154,34.3 160.3,28 168,28 Z M266,280 L70,280 L70,56 L98,56 L98,98 L238,98 L238,56 L266,56 L266,280 Z" id="Shape" fill="#000000" fill-rule="nonzero"></path>
            </g>
            <g id="sports_soccer_black_24dp" transform="translate(69.000000, 129.000000)">
                <rect id="Rectangle-path" x="0" y="0" width="124" height="124"></rect>
                <path d="M62,10.3333333 C33.48,10.3333333 10.3333333,33.48 10.3333333,62 C10.3333333,90.52 33.48,113.666667 62,113.666667 C90.52,113.666667 113.666667,90.52 113.666667,62 C113.666667,33.48 90.52,10.3333333 62,10.3333333 Z M67.1666667,27.3833333 L74.1416667,22.475 C83.545,25.3683333 91.5533333,31.5683333 96.7716667,39.7316667 L94.7566667,46.655 L87.7816667,49.0316667 L67.1666667,34.6166667 L67.1666667,27.3833333 Z M49.8583333,22.475 L56.8333333,27.3833333 L56.8333333,34.6166667 L36.2183333,49.0316667 L29.2433333,46.655 L27.2283333,39.7316667 C32.4466667,31.62 40.455,25.42 49.8583333,22.475 Z M36.58,88.4016667 L30.69,88.9183333 C24.4383333,81.685 20.6666667,72.2816667 20.6666667,62 C20.6666667,61.38 20.7183333,60.8116667 20.77,60.1916667 L25.9366667,56.42 L33.0666667,58.9 L40.61,81.3233333 L36.58,88.4016667 Z M74.9166667,101.215 C70.835,102.558333 66.495,103.333333 62,103.333333 C57.505,103.333333 53.165,102.558333 49.0833333,101.215 L45.5183333,93.5166667 L48.825,87.8333333 L75.2266667,87.8333333 L78.5333333,93.5683333 L74.9166667,101.215 Z M73.7283333,77.5 L50.2716667,77.5 L43.2966667,56.73 L62,43.6066667 L80.755,56.73 L73.7283333,77.5 Z M93.31,88.9183333 L87.42,88.4016667 L83.3383333,81.3233333 L90.8816667,58.9 L98.0633333,56.4716667 L103.23,60.2433333 C103.281667,60.8116667 103.333333,61.38 103.333333,62 C103.333333,72.2816667 99.5616667,81.685 93.31,88.9183333 Z" id="Shape" fill="#000000" fill-rule="nonzero"></path>
            </g>
        </g>
    </g>
</svg>