<svg width="336" height="336" viewBox="0 0 336 336" fill="none" xmlns="http://www.w3.org/2000/svg">
<path d="M266 28H207.48C201.6 11.76 186.2 0 168 0C149.8 0 134.4 11.76 128.52 28H70C54.6 28 42 40.6 42 56V280C42 295.4 54.6 308 70 308H266C281.4 308 294 295.4 294 280V56C294 40.6 281.4 28 266 28ZM168 28C175.7 28 182 34.3 182 42C182 49.7 175.7 56 168 56C160.3 56 154 49.7 154 42C154 34.3 160.3 28 168 28ZM266 280H70V56H98V98H238V56H266V280Z" fill="black"/>
<path d="M168 135.333C139.48 135.333 116.333 158.48 116.333 187C116.333 215.52 139.48 238.667 168 238.667C196.52 238.667 219.667 215.52 219.667 187C219.667 158.48 196.52 135.333 168 135.333ZM173.167 152.383L180.142 147.475C189.545 150.368 197.553 156.568 202.772 164.732L200.757 171.655L193.782 174.032L173.167 159.617V152.383ZM155.858 147.475L162.833 152.383V159.617L142.218 174.032L135.243 171.655L133.228 164.732C138.447 156.62 146.455 150.42 155.858 147.475ZM142.58 213.402L136.69 213.918C130.438 206.685 126.667 197.282 126.667 187C126.667 186.38 126.718 185.812 126.77 185.192L131.937 181.42L139.067 183.9L146.61 206.323L142.58 213.402ZM180.917 226.215C176.835 227.558 172.495 228.333 168 228.333C163.505 228.333 159.165 227.558 155.083 226.215L151.518 218.517L154.825 212.833H181.227L184.533 218.568L180.917 226.215ZM179.728 202.5H156.272L149.297 181.73L168 168.607L186.755 181.73L179.728 202.5ZM199.31 213.918L193.42 213.402L189.338 206.323L196.882 183.9L204.063 181.472L209.23 185.243C209.282 185.812 209.333 186.38 209.333 187C209.333 197.282 205.562 206.685 199.31 213.918Z" fill="black"/>
</svg>
